<svg id="Layer_1" xmlns="http://www.w3.org/2000/svg" viewBox="0 0 256 256"><style>.st0{fill:#628e02}.st1{fill:#79a304}.st2{fill:#e1ff76}.st3{fill:#b7db21}.st4{fill:#caef33}.st5{fill:#6a8700}.st6{fill:#fff}.st7{fill:#9ab91e}.st8{fill:#353e07}</style><path class="st0" d="M119.9 62.3l9.8.6s4.1-31.6-7-43.6c-12.2-13.3-29.1-9-29.1-9s15.1 8.6 19.9 18c5.4 10.6 7 25.6 6.4 34z"/><path class="st0" d="M141.1 48.9l-21.2 6.4s-5.6-21.6 4.5-37.7C136.1-.9 155.1 0 155.1 0S144.5 8.8 140 18.1c-5.1 10.6-.8 25 1.1 30.8z"/><path class="st1" d="M29.6 141.5s-8 33.3-2-2c5-44.2 32.6-115.6 98.7-115.5 100.2.1 106 138.6 106 138.6L29.6 141.5z"/><path class="st2" d="M83 38.5c17.9-10.7 22.8-10 38.2-10.9s32.9.8 46.9 10.1c17.9 11.9 39.5 30.1 48.2 67.5 17.9 48.1 6.3 59.9 6.3 59.9-2.8.6-194.8-6.1-195.2-1.2 2.4-27 3.1-21.3 9.1-49.2C42.1 88.3 65.2 49.2 83 38.5z"/><path class="st3" d="M86.8 42.1c27.7-17.4 27.7 0 35.4-3.3 7.8-3.3 21.9-10.9 33.1 0s45.8 21.3 55.5 64.8c16.6 44.6 16.2 57.2 16.2 57.2-2.6.6-200.7 10.6-201.1 15.1 2.2-25 4.5-11.9 11-46.2 7-37.1 49.9-87.6 49.9-87.6z"/><path class="st4" d="M48 158.9s-12.6-4.4 8.3-41S62 74.5 87.6 67.6s-4.1-1.3 9.2-12.2 59.7-4.8 63.2 1.7 2.4 10.7 14.4 21.5c12 10.7 23.3 41.3 26.4 49.1 3 7.9 12 21.7 12.4 32.9.4 11.3 2.1 17.9 2.1 17.9L48 158.9z"/><path class="st5" d="M59.9 131.7l-3 22.1 30 4 6-22.1z"/><path class="st6" d="M54.9 130.1l-3 23.8 32.4 6.6 4.6-27.2z"/><path class="st5" d="M164.5 133.9l1 23.1 35.6-7.8-2.6-21.1z"/><path class="st6" d="M161.5 133.1l1 25 37.6-8.6-6.6-24z"/><path class="st0" d="M28.2 137.2s25.1 21.1 101.5 16.1 97.3-27.1 97.3-27.1-7.2 29.1-96.3 34.1c-89.2 5-102.5-23.1-102.5-23.1z"/><ellipse class="st2" cx="144.1" cy="108.1" rx="5.5" ry="5.5"/><ellipse class="st2" cx="115" cy="64.5" rx="4.5" ry="7"/><path class="st2" d="M123.3 27.3c13.9-.2 36.7 3.8 32.2 10.9s-37.8.8-32.3 3.8-23.1 1.9-25.8-4.9c-2.7-6.7 12-9.5 25.9-9.8z"/><path class="st1" d="M20.3 233.6c22 15.1 43-2 43-2s12.6 21.1 32.5 21.1 32.5-16.1 32.5-16.1 7.3 22.1 33.5 19.1 29.3-26.1 29.3-26.1 23 14.1 45 1-9.6-105.4-9.6-105.4-21.8 29.1-100.4 33.1-98.2-22.1-98.2-22.1-29.6 82.4-7.6 97.4z"/><path class="st2" d="M30.6 141.5S18.3 177.6 16.2 201c-.8 8.8-4.7 31.1 16.9 34.6 16.1 2.6 22.3-7.7 30.5-6.3 0 0 8.2 19.7 30.6 21.1 22.4 1.4 32-18.3 32-18.3s6.7-.7 10 7 5.5 14.9 23.2 15.5c0 0 19.4-.1 26.3-21.8s18.6 3.5 39.7 0c0 0 9.3 1.4 13.7-7.7 2.3-4.8 4-21.3-1.1-47.1-4.6-23-13.4-46.3-13.4-46.3s-30.1 24.7-97.2 28.6-96.8-18.8-96.8-18.8z"/><path class="st3" d="M32.1 142.6s-8.5 18.9-7.8 41.5-11.7 41.4 11 46.1c23.6 4.8 22.4-8.4 30.3-7.1 0 0 8 18.1 29.6 19.3 21.7 1.3 31-16.8 31-16.8s6.5-.6 9.7 6.4c3.2 7.1 5.4 13.7 22.5 14.3 0 0 18.7-.1 25.4-20.1s18 3.2 38.4 0c0 0 9 1.3 13.2-7.1 2.3-4.4 3.9-19.6-1.1-43.2-4.5-21.1-9.9-44.6-9.9-44.6s-34.8 25.1-97.1 28.6c-64.8 3.8-95.2-17.3-95.2-17.3z"/><path class="st4" d="M45 214.6c5.5 7.3 72.5 16.5 103.9 0s57.8 10.3 68 0 3.3-55.2-9.3-68.7L171 163.1l-89 2.7c-1.2-2.2-33.8-13.2-33.8-13.2-17.1 16.3-8.7 54.6-3.2 62z"/><ellipse class="st2" cx="190" cy="189.2" rx="5.5" ry="5.5"/><ellipse class="st4" cx="101.4" cy="215.5" rx="4.5" ry="7"/><ellipse class="st2" cx="138.6" cy="178.5" rx="6.5" ry="6.5"/><ellipse class="st2" cx="71.2" cy="197.3" rx="8" ry="11.2"/><path class="st2" d="M114.3 116.2c3 1.1 4.7 4.1 3.7 6.7-.9 2.7-4.1 3.9-7.1 2.9s-4.7-4.1-3.7-6.7c.9-2.6 4.1-3.9 7.1-2.9z"/><path class="st0" d="M124 33c-7.3-.7-10.8-4.7-12-11l20.1-1.3 5.6 2.2c-1.4 4.8-6.1 8.1-13.7 10.1z"/><circle class="st6" cx="179.2" cy="78.2" r="28.7"/><path class="st0" d="M179.2 109c-16.9 0-30.7-13.8-30.7-30.7s13.8-30.7 30.7-30.7S210 61.3 210 78.2 196.2 109 179.2 109zm0-57.5c-14.7 0-26.7 12-26.7 26.7s12 26.7 26.7 26.7S206 93 206 78.2s-12-26.7-26.8-26.7z"/><circle class="st7" cx="178.9" cy="77.9" r="15.5"/><circle class="st8" cx="178.9" cy="77.9" r="8.1"/><circle class="st6" cx="166.7" cy="67.7" r="7.2"/><circle class="st6" cx="74.4" cy="79.1" r="35.7"/><path class="st0" d="M74.4 116.8c-20.8 0-37.7-16.9-37.7-37.7s16.9-37.7 37.7-37.7 37.7 16.9 37.7 37.7-16.9 37.7-37.7 37.7zm0-71.4c-18.6 0-33.7 15.1-33.7 33.7s15.1 33.7 33.7 33.7 33.7-15.1 33.7-33.7-15.2-33.7-33.7-33.7z"/><circle class="st7" cx="74.3" cy="79.1" r="17.3"/><circle class="st8" cx="74.3" cy="79.1" r="9.4"/><circle class="st6" cx="64.2" cy="64.1" r="10.5"/></svg>