<svg id="Layer_1" xmlns="http://www.w3.org/2000/svg" viewBox="0 0 40 40"><style>.st0{fill:#fff}.st1{fill:#ef5451}</style><circle class="st0" cx="20" cy="15.1" r="8.9"/><path class="st1" d="M20 11c-2.2 0-4.1 1.9-4.1 4.1 0 2.3 1.8 4.1 4.1 4.1 2.2 0 4.1-1.9 4.1-4.1 0-2.2-1.9-4.1-4.1-4.1zm0 0"/><path class="st1" d="M20 0C11.7 0 5 6.9 5 15.4c0 3.6 1.2 6.9 3.2 9.5L20 40l11.8-15.1c2-2.6 3.2-5.9 3.2-9.5C35 6.9 28.3 0 20 0zm0 22.1c-3.7 0-6.8-3.1-6.8-6.9 0-3.8 3-6.9 6.8-6.9 3.7 0 6.8 3.1 6.8 6.9 0 3.8-3.1 6.9-6.8 6.9zm0 0"/></svg>