<svg id="Layer_1" xmlns="http://www.w3.org/2000/svg" viewBox="0 0 128 24"><style>.st0{fill:#272727}</style><path class="st0" d="M10.4 17H5.5v6H.8V2h9.1c5.5 0 8.6 2.6 8.6 7.3 0 3.2-1.4 5.6-3.9 6.8l4.5 6.9h-5.4l-3.3-6zm-.5-3.9c2.6 0 4.1-1.2 4.1-3.6C14 7.1 12.5 6 9.9 6H5.5v7.1h4.4zm25.6 3.3H23.9c.5 2 2.1 3.2 4.2 3.2 1.5 0 3-.6 4.1-1.7l2.4 2.5c-1.6 1.8-4 2.8-6.9 2.8-5.2 0-8.4-3.3-8.4-8.2 0-5 3.4-8.3 8.3-8.3 5.6.1 8.3 3.8 7.9 9.7zm-4.3-2.7c-.1-2.1-1.4-3.5-3.6-3.5-2 0-3.4 1.4-3.8 3.5h7.4zm5.7 9.3V.8h4.6V23h-4.6zm7.6 0V.8h4.6V23h-4.6zm23.4-8c0 4.9-3.5 8.2-8.6 8.2-5.2 0-8.7-3.3-8.7-8.2 0-5 3.5-8.2 8.7-8.2 5.1 0 8.6 3.2 8.6 8.2zm-12.7 0c0 2.6 1.6 4.4 4 4.4s4-1.8 4-4.4-1.6-4.4-4-4.4-4 1.8-4 4.4zm26.5 5.8V23H70.1V2h2.4v18.7h9.2zm11.6-.2c-1.3 1.7-3.3 2.5-5.8 2.5-3.3 0-5.4-2.1-5.4-4.8 0-2.8 2.2-4.5 5.9-4.5h5.2v-.9c0-2.3-1.4-3.7-4.2-3.7-1.7 0-3.4.7-5 1.8l-1-1.7c2-1.3 3.7-2.1 6.4-2.1 3.9 0 6.1 2.1 6.1 5.5v10.4h-2.3v-2.5zm-.1-3v-1.9h-4.9c-2.6 0-4 .8-4 2.5s1.4 2.9 3.6 2.9c2.7 0 4.7-1.3 5.3-3.5zm21.9-2.4c0 4.7-3.1 7.9-7.5 7.9-2.8 0-5-1.3-6.2-3.5V23h-2.3V.8h2.3v9.9c1.2-2.2 3.3-3.5 6.1-3.5 4.5-.1 7.6 3.2 7.6 8zm-2.3-.1c0-3.4-2.3-5.9-5.6-5.9s-5.7 2.5-5.7 5.9c0 3.5 2.3 5.9 5.7 5.9 3.2 0 5.6-2.5 5.6-5.9zm13.9-6.5l-.9 1.9c-1.2-.8-2.8-1.3-4.3-1.3-1.8 0-3.1.6-3.1 2.1 0 3.5 8.8 1.7 8.8 7.4 0 3.1-2.8 4.5-5.8 4.5-2.2 0-4.6-.8-6.1-2.2l.9-1.8c1.3 1.3 3.4 2 5.2 2 1.9 0 3.4-.7 3.4-2.2.1-3.8-8.8-1.9-8.7-7.5 0-3 2.6-4.3 5.5-4.3 1.9-.1 3.8.5 5.1 1.4z"/></svg>