<svg id="Layer_1" xmlns="http://www.w3.org/2000/svg" viewBox="0 0 114 114"><style>.st0{fill:#fff}.st1{fill:#989c9e}.st2{enable-background:new}.st3{fill:#71797f}.st4{fill:none}.st5{fill:#91ccf8}.st6{fill:#869096}.st7{fill:#666c70}.st8{fill:#caebff}.st9{display:none;fill:#fff;stroke:#000;stroke-miterlimit:10}</style><path class="st0" d="M20.5 112.5V1.5h56.9l27.1 27.1v83.9z"/><path class="st1" d="M76.8 3L103 29.2V111H22V3h54.8M78 0H19v114h87V28L78 0z"/><g class="st2"><path class="st3" d="M39.4 45.7l-1.4.7-.2-.8 1.7-.9h.9v7.8h-1v-6.8zm9 2.8c0 2.7-1 4.1-2.7 4.1-1.5 0-2.6-1.4-2.6-4s1.1-4.1 2.7-4.1c1.7.1 2.6 1.6 2.6 4zm-4.2.2c0 2 .6 3.2 1.6 3.2 1.1 0 1.6-1.3 1.6-3.2s-.5-3.2-1.6-3.2c-.9-.1-1.6 1-1.6 3.2zm7.5-3l-1.4.7-.2-.8 1.7-.9h.9v7.8h-1v-6.8zm9.1 2.8c0 2.7-1 4.1-2.7 4.1-1.5 0-2.6-1.4-2.6-4s1.1-4.1 2.7-4.1c1.6.1 2.6 1.6 2.6 4zm-4.3.2c0 2 .6 3.2 1.6 3.2 1.1 0 1.6-1.3 1.6-3.2s-.5-3.2-1.6-3.2c-.9-.1-1.6 1-1.6 3.2zm7.5-3l-1.4.7-.2-.8 1.7-.9h.9v7.8h-1v-6.8zm6.2 0l-1.4.7-.2-.8 1.7-.9h.9v7.8h-1v-6.8zm9 2.8c0 2.7-1 4.1-2.7 4.1-1.5 0-2.6-1.4-2.6-4s1.1-4.1 2.7-4.1c1.7.1 2.6 1.6 2.6 4zm-4.2.2c0 2 .6 3.2 1.6 3.2 1.1 0 1.6-1.3 1.6-3.2s-.5-3.2-1.6-3.2c-.9-.1-1.6 1-1.6 3.2zm7.5-3l-1.4.7-.2-.8 1.7-.9h.9v7.8h-1v-6.8z"/></g><g class="st2"><path class="st3" d="M39.4 65.7l-1.4.7-.2-.8 1.7-.9h.9v7.8h-1v-6.8zm9 2.8c0 2.7-1 4.1-2.7 4.1-1.5 0-2.6-1.4-2.6-4s1.1-4.1 2.7-4.1c1.7.1 2.6 1.6 2.6 4zm-4.2.2c0 2 .6 3.2 1.6 3.2 1.1 0 1.6-1.3 1.6-3.2 0-1.9-.5-3.2-1.6-3.2-.9-.1-1.6 1-1.6 3.2zm7.5-3l-1.4.7-.2-.8 1.7-.9h.9v7.8h-1v-6.8zm9.1 2.8c0 2.7-1 4.1-2.7 4.1-1.5 0-2.6-1.4-2.6-4s1.1-4.1 2.7-4.1c1.6.1 2.6 1.6 2.6 4zm-4.3.2c0 2 .6 3.2 1.6 3.2 1.1 0 1.6-1.3 1.6-3.2 0-1.9-.5-3.2-1.6-3.2-.9-.1-1.6 1-1.6 3.2zm10.4-.2c0 2.7-1 4.1-2.7 4.1-1.5 0-2.6-1.4-2.6-4s1.1-4.1 2.7-4.1c1.7.1 2.6 1.6 2.6 4zm-4.2.2c0 2 .6 3.2 1.6 3.2 1.1 0 1.6-1.3 1.6-3.2 0-1.9-.5-3.2-1.6-3.2-.9-.1-1.6 1-1.6 3.2zm10.4-.2c0 2.7-1 4.1-2.7 4.1-1.5 0-2.6-1.4-2.6-4s1.1-4.1 2.7-4.1c1.6.1 2.6 1.6 2.6 4zm-4.3.2c0 2 .6 3.2 1.6 3.2 1.1 0 1.6-1.3 1.6-3.2 0-1.9-.5-3.2-1.6-3.2-.9-.1-1.6 1-1.6 3.2zm7.5-3l-1.3.7-.2-.8 1.7-.9h.9v7.8h-1l-.1-6.8zm9.1 2.8c0 2.7-1 4.1-2.7 4.1-1.5 0-2.6-1.4-2.6-4s1.1-4.1 2.7-4.1c1.6.1 2.6 1.6 2.6 4zm-4.3.2c0 2 .6 3.2 1.6 3.2 1.1 0 1.6-1.3 1.6-3.2 0-1.9-.5-3.2-1.6-3.2-.9-.1-1.6 1-1.6 3.2z"/></g><g class="st2"><path class="st3" d="M42.3 88.5c0 2.7-1 4.1-2.7 4.1-1.5 0-2.6-1.4-2.6-4s1.1-4.1 2.7-4.1c1.7.1 2.6 1.6 2.6 4zm-4.2.2c0 2 .6 3.2 1.6 3.2 1.1 0 1.6-1.3 1.6-3.2 0-1.9-.5-3.2-1.6-3.2-1-.1-1.6 1-1.6 3.2zm7.5-3l-1.4.7-.2-.8 1.7-.9h.9v7.8h-1v-6.8zm9 2.8c0 2.7-1 4.1-2.7 4.1-1.5 0-2.6-1.4-2.6-4s1.1-4.1 2.7-4.1c1.7.1 2.6 1.6 2.6 4zm-4.2.2c0 2 .6 3.2 1.6 3.2 1.1 0 1.6-1.3 1.6-3.2 0-1.9-.5-3.2-1.6-3.2-1-.1-1.6 1-1.6 3.2zm7.5-3l-1.4.7-.2-.8 1.7-.9h.9v7.8h-1v-6.8zm6.1 0l-1.4.7-.2-.8 1.7-.9h.9v7.8h-1v-6.8zm9.1 2.8c0 2.7-1 4.1-2.7 4.1-1.5 0-2.6-1.4-2.6-4s1.1-4.1 2.7-4.1c1.6.1 2.6 1.6 2.6 4zm-4.3.2c0 2 .6 3.2 1.6 3.2 1.1 0 1.6-1.3 1.6-3.2 0-1.9-.5-3.2-1.6-3.2-.9-.1-1.6 1-1.6 3.2zm7.5-3l-1.3.7-.2-.8 1.7-.9h.9v7.8h-1l-.1-6.8zm9.1 2.8c0 2.7-1 4.1-2.7 4.1-1.5 0-2.6-1.4-2.6-4s1.1-4.1 2.7-4.1c1.6.1 2.6 1.6 2.6 4zm-4.3.2c0 2 .6 3.2 1.6 3.2 1.1 0 1.6-1.3 1.6-3.2 0-1.9-.5-3.2-1.6-3.2-.9-.1-1.6 1-1.6 3.2z"/></g><path class="st1" d="M75 0h3v31h-3z"/><path class="st1" d="M75 28h31v3H75z"/><path class="st4" d="M34 6.7c-5.3 0-10.4 1.2-15 3.2v67.6c4.6 2 9.7 3.2 15 3.2 20.4 0 37-16.6 37-37s-16.6-37-37-37z"/><circle class="st5" cx="34" cy="43.7" r="30.7"/><path class="st0" d="M70.6 90.8L51.7 71.9c-1.2-1.2 9.3-11.7 10.5-10.5l18.9 18.9c1.2 1.2-.2 4.6-3.1 7.4-2.9 2.9-6.2 4.3-7.4 3.1z"/><path class="st0" d="M80.1 103.2L50.7 73.7C48.8 71.9 62.1 58.5 64 60.4l29.4 29.4c1.9 1.9.4 6.4-3.3 10.1-3.6 3.7-8.1 5.2-10 3.3z"/><path class="st6" d="M71.9 86.1L54.8 69c-1.1-1.1 3.4-5.6 4.5-4.5l17.1 17.1c1.1 1.1 1 3-.3 4.2-1.2 1.3-3.1 1.4-4.2.3z"/><path class="st7" d="M78.9 96.2L59.1 76.4c-1.3-1.3 6.2-8.8 7.5-7.5l19.8 19.8c1.3 1.3.6 4-1.5 6.1-2 2-4.7 2.6-6 1.4z"/><path class="st6" d="M59.7 76.9l-1.5-1.5c-.1-.1 7.4-7.6 7.5-7.5l1.5 1.5c.1.1-1.5 1.9-3.6 3.9-2 2.1-3.8 3.7-3.9 3.6z"/><path class="st7" d="M34 14c16.5 0 30 13.5 30 30S50.5 74 34 74 4 60.5 4 44s13.5-30 30-30m0-4C15.2 10 0 25.2 0 44s15.2 34 34 34 34-15.2 34-34-15.2-34-34-34z"/><path class="st8" d="M33 23c-2.2 0-4 1.8-4 4s1.8 4 4 4c6.8 0 13.6 5.3 14 12 0 2.2 1.8 4 4 4s4-1.8 4-4c-.4-11.3-10.6-20-22-20z"/><path class="st9" d="M0 0h114v114H0z"/></svg>