<?xml version="1.0" encoding="utf-8"?>
<!-- Generator: Adobe Illustrator 21.0.0, SVG Export Plug-In . SVG Version: 6.00 Build 0)  -->
<svg version="1.1" id="Layer_1" xmlns="http://www.w3.org/2000/svg" xmlns:xlink="http://www.w3.org/1999/xlink" x="0px" y="0px"
	 viewBox="0 0 256 256" style="enable-background:new 0 0 256 256;" xml:space="preserve">
<style type="text/css">
	.st0{fill:#628E02;}
	.st1{fill:#79A304;}
	.st2{fill:#E1FF76;}
	.st3{fill:#B7DB21;}
	.st4{fill:#CAEF33;}
	.st5{fill:#6A8700;}
	.st6{fill:#FFFFFF;}
	.st7{fill:#9AB91E;}
	.st8{fill:#353E07;}
</style>
<path class="st0" d="M119.9,62.3l9.8,0.6c0,0,4.1-31.6-7-43.6c-12.2-13.3-29.1-9-29.1-9s15.1,8.6,19.9,18
	C118.9,38.9,120.5,53.9,119.9,62.3z"/>
<path class="st0" d="M141.1,48.9l-21.2,6.4c0,0-5.6-21.6,4.5-37.7C136.1-0.9,155.1,0,155.1,0S144.5,8.8,140,18.1
	C134.9,28.7,139.2,43.1,141.1,48.9z"/>
<path class="st1" d="M29.6,141.5c0,0-8,33.3-2-2c5-44.2,32.6-115.6,98.7-115.5c100.2,0.1,106,138.6,106,138.6L29.6,141.5z"/>
<path class="st2" d="M83,38.5c17.9-10.7,22.8-10,38.2-10.9s32.9,0.8,46.9,10.1c17.9,11.9,39.5,30.1,48.2,67.5
	c17.9,48.1,6.3,59.9,6.3,59.9c-2.8,0.6-194.8-6.1-195.2-1.2c2.4-27,3.1-21.3,9.1-49.2C42.1,88.3,65.2,49.2,83,38.5z"/>
<path class="st3" d="M86.8,42.1c27.7-17.4,27.7,0,35.4-3.3c7.8-3.3,21.9-10.9,33.1,0s45.8,21.3,55.5,64.8
	c16.6,44.6,16.2,57.2,16.2,57.2c-2.6,0.6-200.7,10.6-201.1,15.1c2.2-25,4.5-11.9,11-46.2C43.9,92.6,86.8,42.1,86.8,42.1z"/>
<path class="st4" d="M48,158.9c0,0-12.6-4.4,8.3-41S62,74.5,87.6,67.6s-4.1-1.3,9.2-12.2s59.7-4.8,63.2,1.7s2.4,10.7,14.4,21.5
	c12,10.7,23.3,41.3,26.4,49.1c3,7.9,12,21.7,12.4,32.9c0.4,11.3,2.1,17.9,2.1,17.9L48,158.9z"/>
<polygon class="st5" points="59.9,131.7 56.9,153.8 86.9,157.8 92.9,135.7 "/>
<polygon class="st6" points="54.9,130.1 51.9,153.9 84.3,160.5 88.9,133.3 "/>
<polygon class="st5" points="164.5,133.9 165.5,157 201.1,149.2 198.5,128.1 "/>
<polygon class="st6" points="161.5,133.1 162.5,158.1 200.1,149.5 193.5,125.5 "/>
<path class="st0" d="M28.2,137.2c0,0,25.1,21.1,101.5,16.1s97.3-27.1,97.3-27.1s-7.2,29.1-96.3,34.1
	C41.5,165.3,28.2,137.2,28.2,137.2z"/>
<ellipse class="st2" cx="144.1" cy="108.1" rx="5.5" ry="5.5"/>
<ellipse class="st2" cx="115" cy="64.5" rx="4.5" ry="7"/>
<path class="st2" d="M123.3,27.3c13.9-0.2,36.7,3.8,32.2,10.9S117.7,39,123.2,42s-23.1,1.9-25.8-4.9
	C94.7,30.4,109.4,27.6,123.3,27.3z"/>
<path class="st1" d="M20.3,233.6c22,15.1,43-2,43-2s12.6,21.1,32.5,21.1s32.5-16.1,32.5-16.1s7.3,22.1,33.5,19.1
	s29.3-26.1,29.3-26.1s23,14.1,45,1s-9.6-105.4-9.6-105.4s-21.8,29.1-100.4,33.1s-98.2-22.1-98.2-22.1S-1.7,218.6,20.3,233.6z"/>
<path class="st2" d="M30.6,141.5c0,0-12.3,36.1-14.4,59.5c-0.8,8.8-4.7,31.1,16.9,34.6c16.1,2.6,22.3-7.7,30.5-6.3
	c0,0,8.2,19.7,30.6,21.1c22.4,1.4,32-18.3,32-18.3s6.7-0.7,10,7s5.5,14.9,23.2,15.5c0,0,19.4-0.1,26.3-21.8s18.6,3.5,39.7,0
	c0,0,9.3,1.4,13.7-7.7c2.3-4.8,4-21.3-1.1-47.1c-4.6-23-13.4-46.3-13.4-46.3s-30.1,24.7-97.2,28.6S30.6,141.5,30.6,141.5z"/>
<path class="st3" d="M32.1,142.6c0,0-8.5,18.9-7.8,41.5s-11.7,41.4,11,46.1c23.6,4.8,22.4-8.4,30.3-7.1c0,0,8,18.1,29.6,19.3
	c21.7,1.3,31-16.8,31-16.8s6.5-0.6,9.7,6.4c3.2,7.1,5.4,13.7,22.5,14.3c0,0,18.7-0.1,25.4-20.1s18,3.2,38.4,0c0,0,9,1.3,13.2-7.1
	c2.3-4.4,3.9-19.6-1.1-43.2c-4.5-21.1-9.9-44.6-9.9-44.6s-34.8,25.1-97.1,28.6C62.5,163.7,32.1,142.6,32.1,142.6z"/>
<path class="st4" d="M45,214.6c5.5,7.3,72.5,16.5,103.9,0s57.8,10.3,68,0s3.3-55.2-9.3-68.7L171,163.1l-89,2.7
	c-1.2-2.2-33.8-13.2-33.8-13.2C31.1,168.9,39.5,207.2,45,214.6z"/>
<ellipse class="st2" cx="190" cy="189.2" rx="5.5" ry="5.5"/>
<ellipse class="st4" cx="101.4" cy="215.5" rx="4.5" ry="7"/>
<ellipse class="st2" cx="138.6" cy="178.5" rx="6.5" ry="6.5"/>
<ellipse class="st2" cx="71.2" cy="197.3" rx="8" ry="11.2"/>
<path class="st2" d="M114.3,116.2c3,1.1,4.7,4.1,3.7,6.7c-0.9,2.7-4.1,3.9-7.1,2.9s-4.7-4.1-3.7-6.7
	C108.1,116.5,111.3,115.2,114.3,116.2z"/>
<path class="st0" d="M124,33c-7.3-0.7-10.8-4.7-12-11l20.1-1.3l5.6,2.2C136.3,27.7,131.6,31,124,33z"/>
<g>
	<circle class="st6" cx="179.2" cy="78.2" r="28.7"/>
	<path class="st0" d="M179.2,109c-16.9,0-30.7-13.8-30.7-30.7s13.8-30.7,30.7-30.7S210,61.3,210,78.2S196.2,109,179.2,109z
		 M179.2,51.5c-14.7,0-26.7,12-26.7,26.7s12,26.7,26.7,26.7S206,93,206,78.2S194,51.5,179.2,51.5z"/>
	<circle class="st7" cx="178.9" cy="77.9" r="15.5"/>
	<circle class="st8" cx="178.9" cy="77.9" r="8.1"/>
	<circle class="st6" cx="166.7" cy="67.7" r="7.2"/>
</g>
<g>
	<circle class="st6" cx="74.4" cy="79.1" r="35.7"/>
	<path class="st0" d="M74.4,116.8c-20.8,0-37.7-16.9-37.7-37.7s16.9-37.7,37.7-37.7s37.7,16.9,37.7,37.7S95.2,116.8,74.4,116.8z
		 M74.4,45.4c-18.6,0-33.7,15.1-33.7,33.7s15.1,33.7,33.7,33.7s33.7-15.1,33.7-33.7S92.9,45.4,74.4,45.4z"/>
	<circle class="st7" cx="74.3" cy="79.1" r="17.3"/>
	<circle class="st8" cx="74.3" cy="79.1" r="9.4"/>
	<circle class="st6" cx="64.2" cy="64.1" r="10.5"/>
</g>
</svg>
