<?xml version="1.0" encoding="utf-8"?>
<!-- Generator: Adobe Illustrator 21.0.0, SVG Export Plug-In . SVG Version: 6.00 Build 0)  -->
<svg version="1.1" id="Layer_1" xmlns="http://www.w3.org/2000/svg" xmlns:xlink="http://www.w3.org/1999/xlink" x="0px" y="0px"
	 viewBox="0 0 40 40" style="enable-background:new 0 0 40 40;" xml:space="preserve">
<style type="text/css">
	.st0{fill:#FFFFFF;}
	.st1{fill:#EF5451;}
</style>
<circle class="st0" cx="20" cy="15.1" r="8.9"/>
<g>
	<path class="st1" d="M20,11c-2.2,0-4.1,1.9-4.1,4.1c0,2.3,1.8,4.1,4.1,4.1c2.2,0,4.1-1.9,4.1-4.1C24.1,12.9,22.2,11,20,11L20,11z
		 M20,11"/>
	<path class="st1" d="M20,0C11.7,0,5,6.9,5,15.4c0,3.6,1.2,6.9,3.2,9.5L20,40l11.8-15.1c2-2.6,3.2-5.9,3.2-9.5C35,6.9,28.3,0,20,0
		L20,0z M20,22.1c-3.7,0-6.8-3.1-6.8-6.9c0-3.8,3-6.9,6.8-6.9c3.7,0,6.8,3.1,6.8,6.9C26.8,19,23.7,22.1,20,22.1L20,22.1z M20,22.1"
		/>
</g>
</svg>
