<?xml version="1.0" encoding="utf-8"?>
<!-- Generator: Adobe Illustrator 21.0.0, SVG Export Plug-In . SVG Version: 6.00 Build 0)  -->
<svg version="1.1" id="Layer_1" xmlns="http://www.w3.org/2000/svg" xmlns:xlink="http://www.w3.org/1999/xlink" x="0px" y="0px"
	 viewBox="0 0 128 24" style="enable-background:new 0 0 128 24;" xml:space="preserve">
<style type="text/css">
	.st0{fill:#272727;}
</style>
<path class="st0" d="M10.4,17H9.9H5.5v6H0.8V2h9.1c5.5,0,8.6,2.6,8.6,7.3c0,3.2-1.4,5.6-3.9,6.8l4.5,6.9h-5.4L10.4,17z M9.9,13.1
	c2.6,0,4.1-1.2,4.1-3.6C14,7.1,12.5,6,9.9,6H5.5v7.1H9.9z"/>
<path class="st0" d="M35.5,16.4H23.9c0.5,2,2.1,3.2,4.2,3.2c1.5,0,3-0.6,4.1-1.7l2.4,2.5c-1.6,1.8-4,2.8-6.9,2.8
	c-5.2,0-8.4-3.3-8.4-8.2c0-5,3.4-8.3,8.3-8.3C33.2,6.8,35.9,10.5,35.5,16.4z M31.2,13.7c-0.1-2.1-1.4-3.5-3.6-3.5
	c-2,0-3.4,1.4-3.8,3.5H31.2z"/>
<path class="st0" d="M36.9,23V0.8h4.6V23H36.9z"/>
<path class="st0" d="M44.5,23V0.8h4.6V23H44.5z"/>
<path class="st0" d="M67.9,15c0,4.9-3.5,8.2-8.6,8.2c-5.2,0-8.7-3.3-8.7-8.2c0-5,3.5-8.2,8.7-8.2C64.4,6.8,67.9,10,67.9,15z
	 M55.2,15c0,2.6,1.6,4.4,4,4.4c2.4,0,4-1.8,4-4.4s-1.6-4.4-4-4.4C56.8,10.6,55.2,12.4,55.2,15z"/>
<path class="st0" d="M81.7,20.8V23H70.1V2h2.4v18.7H81.7z"/>
<path class="st0" d="M93.3,20.6c-1.3,1.7-3.3,2.5-5.8,2.5c-3.3,0-5.4-2.1-5.4-4.8c0-2.8,2.2-4.5,5.9-4.5h5.2v-0.9
	c0-2.3-1.4-3.7-4.2-3.7c-1.7,0-3.4,0.7-5,1.8l-1-1.7c2-1.3,3.7-2.1,6.4-2.1c3.9,0,6.1,2.1,6.1,5.5l0,10.4h-2.3V20.6z M93.2,17.6
	v-1.9h-4.9c-2.6,0-4,0.8-4,2.5s1.4,2.9,3.6,2.9C90.6,21.1,92.6,19.8,93.2,17.6z"/>
<path class="st0" d="M115.1,15.2c0,4.7-3.1,7.9-7.5,7.9c-2.8,0-5-1.3-6.2-3.5V23h-2.3V0.8h2.3v9.9c1.2-2.2,3.3-3.5,6.1-3.5
	C112,7.1,115.1,10.4,115.1,15.2z M112.8,15.1c0-3.4-2.3-5.9-5.6-5.9c-3.3,0-5.7,2.5-5.7,5.9c0,3.5,2.3,5.9,5.7,5.9
	C110.4,21,112.8,18.5,112.8,15.1z"/>
<path class="st0" d="M126.7,8.6l-0.9,1.9c-1.2-0.8-2.8-1.3-4.3-1.3c-1.8,0-3.1,0.6-3.1,2.1c0,3.5,8.8,1.7,8.8,7.4
	c0,3.1-2.8,4.5-5.8,4.5c-2.2,0-4.6-0.8-6.1-2.2l0.9-1.8c1.3,1.3,3.4,2,5.2,2c1.9,0,3.4-0.7,3.4-2.2c0.1-3.8-8.8-1.9-8.7-7.5
	c0-3,2.6-4.3,5.5-4.3C123.5,7.1,125.4,7.7,126.7,8.6z"/>
</svg>
