<?xml version="1.0" encoding="utf-8"?>
<!-- Generator: Adobe Illustrator 21.0.0, SVG Export Plug-In . SVG Version: 6.00 Build 0)  -->
<svg version="1.1" id="Layer_1" xmlns="http://www.w3.org/2000/svg" xmlns:xlink="http://www.w3.org/1999/xlink" x="0px" y="0px"
	 viewBox="0 0 114 114" style="enable-background:new 0 0 114 114;" xml:space="preserve">
<style type="text/css">
	.st0{fill:#FFFFFF;}
	.st1{fill:#989C9E;}
	.st2{enable-background:new    ;}
	.st3{fill:#71797F;}
	.st4{fill:none;}
	.st5{fill:#91CCF8;}
	.st6{fill:#869096;}
	.st7{fill:#666C70;}
	.st8{fill:#CAEBFF;}
	.st9{display:none;fill:#FFFFFF;stroke:#000000;stroke-miterlimit:10;}
</style>
<g>
	<polygon class="st0" points="20.5,112.5 20.5,1.5 77.4,1.5 104.5,28.6 104.5,112.5 	"/>
	<path class="st1" d="M76.8,3L103,29.2V111H22V3H76.8 M78,0H19v114h87V28L78,0L78,0z"/>
</g>
<g class="st2">
	<path class="st3" d="M39.4,45.7L39.4,45.7L38,46.4l-0.2-0.8l1.7-0.9h0.9v7.8h-1V45.7z"/>
	<path class="st3" d="M48.4,48.5c0,2.7-1,4.1-2.7,4.1c-1.5,0-2.6-1.4-2.6-4s1.1-4.1,2.7-4.1C47.5,44.6,48.4,46.1,48.4,48.5z
		 M44.2,48.7c0,2,0.6,3.2,1.6,3.2c1.1,0,1.6-1.3,1.6-3.2s-0.5-3.2-1.6-3.2C44.9,45.4,44.2,46.5,44.2,48.7z"/>
	<path class="st3" d="M51.7,45.7L51.7,45.7l-1.4,0.7l-0.2-0.8l1.7-0.9h0.9v7.8h-1V45.7z"/>
	<path class="st3" d="M60.8,48.5c0,2.7-1,4.1-2.7,4.1c-1.5,0-2.6-1.4-2.6-4s1.1-4.1,2.7-4.1C59.8,44.6,60.8,46.1,60.8,48.5z
		 M56.5,48.7c0,2,0.6,3.2,1.6,3.2c1.1,0,1.6-1.3,1.6-3.2s-0.5-3.2-1.6-3.2C57.2,45.4,56.5,46.5,56.5,48.7z"/>
	<path class="st3" d="M64,45.7L64,45.7l-1.4,0.7l-0.2-0.8l1.7-0.9H65v7.8h-1V45.7z"/>
	<path class="st3" d="M70.2,45.7L70.2,45.7l-1.4,0.7l-0.2-0.8l1.7-0.9h0.9v7.8h-1V45.7z"/>
	<path class="st3" d="M79.2,48.5c0,2.7-1,4.1-2.7,4.1c-1.5,0-2.6-1.4-2.6-4s1.1-4.1,2.7-4.1C78.3,44.6,79.2,46.1,79.2,48.5z
		 M75,48.7c0,2,0.6,3.2,1.6,3.2c1.1,0,1.6-1.3,1.6-3.2s-0.5-3.2-1.6-3.2C75.7,45.4,75,46.5,75,48.7z"/>
	<path class="st3" d="M82.5,45.7L82.5,45.7l-1.4,0.7l-0.2-0.8l1.7-0.9h0.9v7.8h-1V45.7z"/>
</g>
<g class="st2">
	<path class="st3" d="M39.4,65.7L39.4,65.7L38,66.4l-0.2-0.8l1.7-0.9h0.9v7.8h-1V65.7z"/>
	<path class="st3" d="M48.4,68.5c0,2.7-1,4.1-2.7,4.1c-1.5,0-2.6-1.4-2.6-4s1.1-4.1,2.7-4.1C47.5,64.6,48.4,66.1,48.4,68.5z
		 M44.2,68.7c0,2,0.6,3.2,1.6,3.2c1.1,0,1.6-1.3,1.6-3.2c0-1.9-0.5-3.2-1.6-3.2C44.9,65.4,44.2,66.5,44.2,68.7z"/>
	<path class="st3" d="M51.7,65.7L51.7,65.7l-1.4,0.7l-0.2-0.8l1.7-0.9h0.9v7.8h-1V65.7z"/>
	<path class="st3" d="M60.8,68.5c0,2.7-1,4.1-2.7,4.1c-1.5,0-2.6-1.4-2.6-4s1.1-4.1,2.7-4.1C59.8,64.6,60.8,66.1,60.8,68.5z
		 M56.5,68.7c0,2,0.6,3.2,1.6,3.2c1.1,0,1.6-1.3,1.6-3.2c0-1.9-0.5-3.2-1.6-3.2C57.2,65.4,56.5,66.5,56.5,68.7z"/>
	<path class="st3" d="M66.9,68.5c0,2.7-1,4.1-2.7,4.1c-1.5,0-2.6-1.4-2.6-4s1.1-4.1,2.7-4.1C66,64.6,66.9,66.1,66.9,68.5z
		 M62.7,68.7c0,2,0.6,3.2,1.6,3.2c1.1,0,1.6-1.3,1.6-3.2c0-1.9-0.5-3.2-1.6-3.2C63.4,65.4,62.7,66.5,62.7,68.7z"/>
	<path class="st3" d="M73.1,68.5c0,2.7-1,4.1-2.7,4.1c-1.5,0-2.6-1.4-2.6-4s1.1-4.1,2.7-4.1C72.1,64.6,73.1,66.1,73.1,68.5z
		 M68.8,68.7c0,2,0.6,3.2,1.6,3.2c1.1,0,1.6-1.3,1.6-3.2c0-1.9-0.5-3.2-1.6-3.2C69.5,65.4,68.8,66.5,68.8,68.7z"/>
	<path class="st3" d="M76.3,65.7L76.3,65.7L75,66.4l-0.2-0.8l1.7-0.9h0.9v7.8h-1L76.3,65.7L76.3,65.7z"/>
	<path class="st3" d="M85.4,68.5c0,2.7-1,4.1-2.7,4.1c-1.5,0-2.6-1.4-2.6-4s1.1-4.1,2.7-4.1C84.4,64.6,85.4,66.1,85.4,68.5z
		 M81.1,68.7c0,2,0.6,3.2,1.6,3.2c1.1,0,1.6-1.3,1.6-3.2c0-1.9-0.5-3.2-1.6-3.2C81.8,65.4,81.1,66.5,81.1,68.7z"/>
</g>
<g class="st2">
	<path class="st3" d="M42.3,88.5c0,2.7-1,4.1-2.7,4.1c-1.5,0-2.6-1.4-2.6-4s1.1-4.1,2.7-4.1C41.4,84.6,42.3,86.1,42.3,88.5z
		 M38.1,88.7c0,2,0.6,3.2,1.6,3.2c1.1,0,1.6-1.3,1.6-3.2c0-1.9-0.5-3.2-1.6-3.2C38.7,85.4,38.1,86.5,38.1,88.7z"/>
	<path class="st3" d="M45.6,85.7L45.6,85.7l-1.4,0.7L44,85.6l1.7-0.9h0.9v7.8h-1C45.6,92.5,45.6,85.7,45.6,85.7z"/>
	<path class="st3" d="M54.6,88.5c0,2.7-1,4.1-2.7,4.1c-1.5,0-2.6-1.4-2.6-4s1.1-4.1,2.7-4.1C53.7,84.6,54.6,86.1,54.6,88.5z
		 M50.4,88.7c0,2,0.6,3.2,1.6,3.2c1.1,0,1.6-1.3,1.6-3.2c0-1.9-0.5-3.2-1.6-3.2C51,85.4,50.4,86.5,50.4,88.7z"/>
	<path class="st3" d="M57.9,85.7L57.9,85.7l-1.4,0.7l-0.2-0.8l1.7-0.9h0.9v7.8h-1V85.7z"/>
	<path class="st3" d="M64,85.7L64,85.7l-1.4,0.7l-0.2-0.8l1.7-0.9H65v7.8h-1V85.7z"/>
	<path class="st3" d="M73.1,88.5c0,2.7-1,4.1-2.7,4.1c-1.5,0-2.6-1.4-2.6-4s1.1-4.1,2.7-4.1C72.1,84.6,73.1,86.1,73.1,88.5z
		 M68.8,88.7c0,2,0.6,3.2,1.6,3.2c1.1,0,1.6-1.3,1.6-3.2c0-1.9-0.5-3.2-1.6-3.2C69.5,85.4,68.8,86.5,68.8,88.7z"/>
	<path class="st3" d="M76.3,85.7L76.3,85.7L75,86.4l-0.2-0.8l1.7-0.9h0.9v7.8h-1L76.3,85.7L76.3,85.7z"/>
	<path class="st3" d="M85.4,88.5c0,2.7-1,4.1-2.7,4.1c-1.5,0-2.6-1.4-2.6-4s1.1-4.1,2.7-4.1C84.4,84.6,85.4,86.1,85.4,88.5z
		 M81.1,88.7c0,2,0.6,3.2,1.6,3.2c1.1,0,1.6-1.3,1.6-3.2c0-1.9-0.5-3.2-1.6-3.2C81.8,85.4,81.1,86.5,81.1,88.7z"/>
</g>
<g>
	<rect x="75" class="st1" width="3" height="31"/>
</g>
<g>
	<rect x="75" y="28" class="st1" width="31" height="3"/>
</g>
<g>
	<path class="st4" d="M34,6.7c-5.3,0-10.4,1.2-15,3.2v67.6c4.6,2,9.7,3.2,15,3.2c20.4,0,37-16.6,37-37S54.4,6.7,34,6.7z"/>
	<g>
		<circle class="st5" cx="34" cy="43.7" r="30.7"/>
	</g>
	<g>
		<path class="st0" d="M70.6,90.8L51.7,71.9c-1.2-1.2,9.3-11.7,10.5-10.5l18.9,18.9c1.2,1.2-0.2,4.6-3.1,7.4l0,0
			C75.1,90.6,71.8,92,70.6,90.8z"/>
	</g>
	<g>
		<path class="st0" d="M80.1,103.2L50.7,73.7C48.8,71.9,62.1,58.5,64,60.4l29.4,29.4c1.9,1.9,0.4,6.4-3.3,10.1l0,0
			C86.5,103.6,82,105.1,80.1,103.2z"/>
	</g>
	<g>
		<path class="st6" d="M71.9,86.1L54.8,69c-1.1-1.1,3.4-5.6,4.5-4.5l17.1,17.1c1.1,1.1,1,3-0.3,4.2l0,0C74.9,87.1,73,87.2,71.9,86.1
			z"/>
	</g>
	<g>
		<path class="st7" d="M78.9,96.2L59.1,76.4c-1.3-1.3,6.2-8.8,7.5-7.5l19.8,19.8c1.3,1.3,0.6,4-1.5,6.1l0,0
			C82.9,96.8,80.2,97.4,78.9,96.2z"/>
	</g>
	<g>
		<path class="st6" d="M59.7,76.9l-1.5-1.5c-0.1-0.1,7.4-7.6,7.5-7.5l1.5,1.5c0.1,0.1-1.5,1.9-3.6,3.9l0,0
			C61.6,75.4,59.8,77,59.7,76.9z"/>
	</g>
	<g>
		<path class="st7" d="M34,14c16.5,0,30,13.5,30,30S50.5,74,34,74S4,60.5,4,44S17.5,14,34,14 M34,10C15.2,10,0,25.2,0,44
			s15.2,34,34,34s34-15.2,34-34S52.8,10,34,10L34,10z"/>
	</g>
</g>
<g>
	<path class="st8" d="M33,23c-2.2,0-4,1.8-4,4s1.8,4,4,4c6.8,0,13.6,5.3,14,12c0,2.2,1.8,4,4,4s4-1.8,4-4C54.6,31.7,44.4,23,33,23z"
		/>
</g>
<rect class="st9" width="114" height="114"/>
</svg>
